REM MD5 05f4cd97c0b6b0d2cfa97a880145ef05
FILE "Famitsu Wave Soukan-gou Vol. 3 (Japan).bin" BINARY
  TRACK 01 MODE2/2352
    INDEX 01 00:00:00
  TRACK 02 AUDIO
    INDEX 00 43:53:02
    INDEX 01 43:55:02
  TRACK 03 AUDIO
    INDEX 00 46:23:60
    INDEX 01 46:25:60
REM LEADOUT 49:33:60
